<svg version="1.1" xmlns="http://www.w3.org/2000/svg" x="0" y="0" width="547.8" height="547.8" viewBox="0 0 547.8 547.8" xml:space="preserve">
  <path d="M506.4 293.1h-43.8c-11.1 0-20 8.9-20.4 19.8 -9.1 84.6-80.7 150.5-167.8 150.5 -93.3 0-168.8-75.4-168.8-168.5 0-92.3 76-167.2 168.1-168.5v27.4c0 12.5 8.9 18.1 19.7 12.5l140.7-72c10.9-5.6 10.9-14.6 0-20.2L293.3 2.2c-10.9-5.6-19.7 0-19.7 12.4v27.6C134.9 43.5 21.1 156.2 21.1 295c0 139.6 113.3 252.8 253.1 252.8 133.7 0 243.3-103.5 252.4-234.8C526.8 302 517.5 293.1 506.4 293.1z" fill="#2a3c3d"/>
</svg>
