<svg version="1.1" id="Capa_1" xmlns="http://www.w3.org/2000/svg" xmlns:xlink="http://www.w3.org/1999/xlink" x="0" y="0" width="115.3" height="115.3" viewBox="0 0 115.3 115.3" xml:space="preserve" enable-background="new 0 0 115.3 115.3">
  <path fill="#cab01c" d="M47.9 14.3L26 30.7H6c-3.3 0-6 2.7-6 6v41.8c0 3.3 2.7 6 6 6h20l21.9 16.4c4 3 9.6 0.2 9.6-4.8v-77C57.5 14.1 51.8 11.3 47.9 14.3zM77.3 24.1c-2.7-2.7-7.2-2.7-9.9 0 -2.7 2.7-2.7 7.2 0 9.9 13 13 13 34.1 0 47.1 -2.7 2.7-2.7 7.2 0 9.9 1.4 1.4 3.2 2 4.9 2s3.6-0.7 4.9-2.1C95.8 72.6 95.8 42.6 77.3 24.1zM85.1 8.4c-2.7 2.7-2.7 7.2 0 9.9 10.5 10.5 16.3 24.4 16.3 39.3s-5.8 28.8-16.3 39.3c-2.7 2.7-2.7 7.2 0 9.9 1.4 1.4 3.2 2.1 4.9 2.1 1.8 0 3.6-0.7 4.9-2 13.1-13.1 20.4-30.6 20.4-49.2 0-18.6-7.2-36-20.4-49.2C92.3 5.7 87.9 5.7 85.1 8.4z"/>
</svg>
